<svg width="169" height="172" viewBox="0 0 169 172" fill="none" xmlns="http://www.w3.org/2000/svg">
<path d="M100.5 52C110.165 52 118 59.835 118 69.5V102.5C118 112.165 110.165 120 100.5 120H68.5C58.835 120 51 112.165 51 102.5V69.5C51 59.835 58.835 52 68.5 52H100.5ZM68.5 55C60.4919 55 54 61.4919 54 69.5V102.5C54 110.508 60.4919 117 68.5 117H100.5C108.508 117 115 110.508 115 102.5V69.5C115 61.4919 108.508 55 100.5 55H68.5ZM87.5186 93.8652L93.998 96.9199L76.9482 112.446L81.4785 102.832L75 99.7783L92.0498 84.252L87.5186 93.8652ZM99.3545 60.5C103.853 60.5002 107.5 64.3057 107.5 69C107.5 73.6943 103.853 77.4998 99.3545 77.5H69.6455C65.1468 77.4998 61.5 73.6943 61.5 69C61.5 64.3057 65.1468 60.5002 69.6455 60.5H99.3545ZM69.6455 63C66.47 63.0002 63.8955 65.6864 63.8955 69C63.8955 72.3136 66.47 74.9998 69.6455 75H99.3545C102.53 74.9998 105.104 72.3136 105.104 69C105.104 65.6864 102.53 63.0002 99.3545 63H69.6455ZM97.3535 65.5C99.6435 65.5 101.5 67.067 101.5 69C101.5 70.933 99.6435 72.5 97.3535 72.5H71.6465C69.3565 72.5 67.5 70.933 67.5 69C67.5 67.067 69.3565 65.5 71.6465 65.5H97.3535Z" fill="black"/>
</svg>
